<svg version="1.1" id="Layer_1" xmlns="http://www.w3.org/2000/svg" xmlns:xlink="http://www.w3.org/1999/xlink" x="0px" y="0px"
	 width="100%" viewBox="0 0 1920 1920" enable-background="new 0 0 1920 1920" xml:space="preserve">
<path fill="#000000" opacity="1.000000" stroke="none" 
	d="
M1271.000000,1921.000000 
	C847.333313,1921.000000 424.166656,1921.000000 1.000000,1921.000000 
	C1.000000,1281.000000 1.000000,641.000000 1.000000,1.000000 
	C641.000000,1.000000 1281.000000,1.000000 1921.000000,1.000000 
	C1921.000000,641.000000 1921.000000,1281.000000 1921.000000,1921.000000 
	C1704.500000,1921.000000 1488.000000,1921.000000 1271.000000,1921.000000 
M1011.440247,653.030518 
	C1011.260803,653.352966 1011.081360,653.675354 1010.973755,653.993469 
	C1010.973755,653.993469 1010.958496,653.923157 1010.295349,654.095520 
	C1008.291504,656.103333 1006.175415,658.012207 1004.304199,660.136780 
	C997.649536,667.692566 990.901306,675.177673 984.548645,682.982666 
	C981.275940,687.003601 978.763367,691.643188 975.997070,696.001221 
	C975.997070,696.001221 975.994324,695.911438 975.238770,695.950439 
	C972.129761,700.963257 969.020813,705.976013 965.987610,710.986023 
	C965.987610,710.986023 965.981323,710.910400 965.304932,711.131836 
	C964.504822,712.761536 963.704773,714.391174 963.007263,716.008484 
	C963.007263,716.008484 962.997070,715.905579 962.360962,716.092957 
	C961.241394,716.030823 960.121887,715.968750 958.992188,716.011780 
	C958.992188,716.011780 959.096985,716.024536 959.008423,715.290894 
	C958.012024,713.830872 957.015625,712.370789 956.012573,710.986694 
	C956.012573,710.986694 956.088684,710.989746 956.018250,710.248047 
	C944.016357,689.085571 928.758423,670.523193 911.006165,653.988159 
	C911.006165,653.988159 911.074585,653.961365 911.041504,653.250366 
	C907.786011,650.049622 904.614441,646.757141 901.248047,643.677612 
	C898.636353,641.288452 895.781311,639.165283 893.005188,636.988953 
	C893.005188,636.988953 893.070068,636.959106 893.052002,636.232788 
	C890.029297,633.465698 887.138428,630.533264 883.940979,627.985413 
	C881.503662,626.043335 878.677673,624.588989 876.018127,622.987610 
	C876.018127,622.987610 876.086731,622.972595 875.875854,622.288147 
	C870.912781,618.827576 865.949646,615.367004 860.990479,612.005981 
	C860.990479,612.005981 861.090027,612.004150 861.041077,611.256653 
	C858.702576,609.810364 856.364014,608.364075 854.006348,606.984558 
	C854.006348,606.984558 854.072266,606.962708 854.048462,606.210571 
	C849.422241,603.287964 844.859802,600.257629 840.155334,597.466919 
	C832.289001,592.800720 824.427551,588.110901 816.386414,583.759155 
	C808.271057,579.367310 800.057373,575.115967 791.664368,571.291260 
	C785.312561,568.396912 778.610901,566.270264 771.739075,563.127075 
	C770.714844,562.771912 769.697449,562.395142 768.665222,562.064941 
	C759.107178,559.007507 749.546570,555.958069 739.999023,552.999817 
	C739.999023,552.999817 740.092651,552.988281 739.867004,552.249939 
	C739.029419,551.812256 738.237732,551.207703 737.347168,550.962219 
	C726.296021,547.915894 715.284912,544.698669 704.151978,541.982483 
	C694.643860,539.662781 685.028442,537.726379 675.389771,536.019836 
	C669.481384,534.973755 663.107361,535.673523 657.537781,533.810059 
	C649.704956,531.189392 641.874634,531.303162 633.916077,530.886780 
	C625.655518,530.454651 614.294373,540.554932 614.732910,549.702026 
	C615.489746,565.488525 614.844971,581.338562 615.015320,597.159546 
	C615.055115,600.856567 613.943848,602.086182 610.192078,602.035583 
	C596.383667,601.849548 582.564209,602.236206 568.762207,601.885498 
	C555.112488,601.538818 544.203308,609.672180 544.925171,625.650940 
	C545.093994,629.387756 544.950195,633.138672 544.950195,636.944214 
	C529.893494,636.944214 515.565491,637.195618 501.251404,636.857239 
	C491.447906,636.625488 482.209839,641.476685 479.317535,653.160522 
	C479.192963,653.605347 479.068420,654.050171 478.739441,655.343140 
	C479.507111,663.374207 480.274811,671.405212 480.512329,678.995056 
	C480.323792,679.126587 480.135223,679.258179 479.245361,679.426819 
	C479.485229,679.992554 479.725098,680.558289 479.981354,682.045044 
	C479.976440,688.323303 479.971558,694.601624 479.288727,701.195068 
	C479.507568,701.668762 479.726379,702.142456 480.514008,703.008118 
	C480.690125,702.859802 480.866272,702.711487 480.394653,703.218628 
	C479.840179,709.145264 478.765198,715.077820 478.832214,720.997375 
	C479.008667,736.583618 479.672455,752.164551 480.192200,767.745911 
	C480.211426,768.322083 480.754944,768.880676 480.154846,768.739746 
	C479.900177,771.456116 479.645477,774.172485 479.390808,776.888855 
	C479.945251,776.776733 480.499695,776.664612 480.403809,777.220215 
	C479.827667,798.953674 479.219482,820.686340 478.709534,842.421326 
	C478.631775,845.735229 479.039093,849.058594 479.169647,852.379639 
	C479.475250,860.153076 480.032043,867.930176 479.966675,875.701355 
	C479.877563,886.290161 479.304077,896.874756 478.991211,908.499817 
	C478.973541,908.846008 478.955872,909.192261 478.738892,910.354065 
	C478.718597,923.555969 478.565613,936.759705 478.743469,949.958984 
	C478.814453,955.226990 480.075104,960.492065 479.997101,965.746643 
	C479.780304,980.347290 478.686920,994.944214 478.765015,1009.538208 
	C478.965118,1046.928101 479.742523,1084.314697 479.998444,1121.704590 
	C480.071014,1132.302246 478.685425,1142.910156 478.758301,1153.507812 
	C479.013336,1190.580322 479.710205,1227.649536 480.014374,1264.722046 
	C480.090302,1273.979004 479.322998,1283.243042 479.020050,1293.201782 
	C479.334229,1293.511719 479.648376,1293.821655 480.256104,1294.824341 
	C483.405701,1309.217651 498.580566,1311.996582 511.838470,1308.017212 
	C514.951477,1307.668091 518.064453,1307.319092 521.892456,1307.289429 
	C530.291626,1307.186646 538.690674,1307.007690 547.089966,1306.996826 
	C564.712524,1306.973999 582.335266,1307.039551 600.350647,1307.857300 
	C607.551086,1307.857300 614.751526,1307.857300 622.877625,1308.051636 
	C633.729370,1307.994263 644.604797,1307.306763 655.315186,1310.021729 
	C656.784302,1310.394165 658.601746,1309.392578 660.806702,1309.073242 
	C661.171875,1309.042603 661.537048,1309.011963 662.073669,1309.462158 
	C662.341492,1309.653687 662.609314,1309.845093 663.248840,1310.844604 
	C672.161072,1311.582520 681.083984,1312.211426 689.982910,1313.084717 
	C702.359619,1314.299072 714.723450,1315.651123 727.081848,1317.041138 
	C731.205261,1317.504761 735.294189,1318.272461 739.400757,1318.889160 
	C748.632874,1320.275757 757.866089,1321.654785 767.297058,1323.120605 
	C767.297058,1323.120605 767.461914,1322.982422 768.017517,1323.609863 
	C775.014038,1325.091553 782.004700,1326.601929 789.009094,1328.045288 
	C793.979614,1329.069336 798.968689,1330.003174 804.614441,1331.040894 
	C805.059448,1331.029419 805.504517,1331.018066 806.296021,1331.722168 
	C809.464539,1332.636963 812.598877,1333.702026 815.809204,1334.433105 
	C821.541138,1335.738403 827.318909,1336.842163 833.283386,1338.113892 
	C833.283386,1338.113892 833.458801,1337.977417 834.018005,1338.571777 
	C839.808289,1340.251465 845.598511,1341.931030 852.177124,1343.907959 
	C861.365906,1346.925415 870.554688,1349.942749 879.932190,1353.752930 
	C882.885925,1354.987427 885.827637,1356.251709 888.795654,1357.450806 
	C897.588318,1361.003418 906.391418,1364.530273 915.347656,1368.131836 
	C915.347656,1368.131836 915.425476,1367.980713 915.909180,1368.632324 
	C920.241455,1370.931152 924.595947,1373.189209 928.900940,1375.538086 
	C935.283203,1379.020508 941.630249,1382.567505 947.991211,1386.002930 
	C947.991211,1386.002930 947.907288,1386.005737 948.124817,1386.708252 
	C950.918396,1388.102661 953.604004,1390.333496 956.528809,1390.710815 
	C961.988831,1391.415283 967.844971,1392.062988 971.959290,1386.954590 
	C971.959290,1386.954590 971.937866,1387.075195 972.596069,1386.930420 
	C973.093323,1386.625977 973.590515,1386.321411 974.010559,1386.009033 
	C974.010559,1386.009033 974.005249,1386.086426 974.772461,1386.044434 
	C979.214905,1383.023315 983.657288,1380.002197 988.814880,1376.978516 
	C995.048096,1373.615112 1001.281250,1370.251831 1007.932861,1367.344849 
	C1009.163452,1367.219482 1010.501831,1367.365356 1011.607849,1366.926147 
	C1021.652832,1362.937500 1031.663086,1358.860718 1041.649414,1354.727539 
	C1041.992432,1354.585571 1041.977905,1353.579956 1042.947388,1353.021240 
	C1044.187378,1352.530762 1045.427246,1352.040405 1047.374634,1351.645142 
	C1051.573853,1350.299561 1055.753784,1348.890137 1059.975830,1347.620728 
	C1071.401611,1344.185181 1082.768921,1340.518921 1094.301880,1337.486084 
	C1107.414673,1334.037598 1120.628662,1330.921631 1133.898315,1328.136597 
	C1145.231689,1325.758057 1156.792847,1324.444702 1168.095581,1321.946899 
	C1181.217896,1319.046997 1194.438110,1317.231201 1207.794067,1315.990601 
	C1212.569946,1315.547119 1217.246338,1314.033203 1222.872559,1313.001953 
	C1227.960327,1312.645386 1233.048218,1312.288940 1239.033936,1312.010620 
	C1246.078491,1311.701050 1253.130615,1311.495605 1260.161377,1310.994263 
	C1261.577637,1310.893066 1262.913818,1309.669922 1264.774780,1309.017700 
	C1264.774780,1309.017700 1265.250000,1308.895996 1265.968140,1309.145386 
	C1266.882202,1309.368408 1267.812866,1309.836304 1268.707886,1309.776001 
	C1276.697266,1309.237671 1284.678345,1308.575073 1292.666870,1308.021240 
	C1295.119507,1307.851196 1297.587646,1307.904541 1300.973877,1307.969604 
	C1304.408936,1307.985718 1307.849731,1308.132324 1311.277710,1307.983643 
	C1315.204346,1307.813477 1319.119873,1307.380981 1323.970581,1306.996826 
	C1336.272583,1307.021118 1348.575195,1306.987671 1360.876587,1307.088623 
	C1369.935913,1307.162964 1378.994019,1307.412842 1388.888428,1307.689941 
	C1396.038574,1308.148926 1403.184814,1308.684204 1410.340332,1309.034424 
	C1413.917725,1309.209717 1417.511597,1309.046875 1421.278931,1309.126221 
	C1421.278931,1309.126221 1421.431152,1308.993896 1421.934692,1309.526001 
	C1422.480591,1309.350220 1423.026611,1309.174438 1423.853882,1309.169556 
	C1423.853882,1309.169556 1424.182983,1309.179199 1424.182983,1309.179199 
	C1424.182983,1309.179199 1424.475708,1309.028320 1424.979980,1309.579346 
	C1427.344482,1308.789307 1429.708984,1307.999146 1432.745728,1307.069214 
	C1433.853394,1306.062988 1434.961060,1305.056641 1436.001343,1304.028564 
	C1436.001343,1304.028564 1436.002319,1304.099365 1436.558472,1303.968018 
	C1436.738037,1303.649048 1436.917603,1303.330078 1437.026001,1303.007446 
	C1437.026001,1303.007446 1437.046753,1303.075439 1437.731079,1302.867188 
	C1441.089233,1300.223511 1442.052612,1296.679688 1442.051880,1292.534790 
	C1442.012695,1081.997559 1442.014771,871.460266 1442.013062,660.922974 
	C1442.013062,658.257935 1442.297974,655.557678 1441.963989,652.935669 
	C1441.370728,648.278442 1440.555420,643.572876 1435.003174,641.992676 
	C1435.003174,641.992676 1435.067871,641.951843 1435.036987,641.182251 
	C1431.304810,639.771729 1427.621704,637.324036 1423.831299,637.144714 
	C1412.389893,636.603516 1400.906860,636.943237 1389.440063,636.940247 
	C1385.357056,636.939209 1381.274048,636.940125 1377.662231,636.940125 
	C1377.021606,630.092285 1376.627319,623.888855 1375.816528,617.740356 
	C1374.911499,610.877197 1368.752686,603.414001 1360.919922,602.290649 
	C1360.277710,602.226318 1359.635376,602.161987 1358.063110,601.980957 
	C1347.045044,602.027588 1336.026855,602.074280 1324.093384,601.941833 
	C1320.273193,601.983459 1316.088501,601.042725 1312.717041,602.293701 
	C1307.481079,604.236572 1307.051025,602.025330 1307.060669,597.978333 
	C1307.099976,581.497437 1307.398682,565.007629 1306.951416,548.538696 
	C1306.684082,538.694214 1299.808716,531.408569 1290.827881,531.271423 
	C1278.890381,531.089172 1266.878174,532.939392 1254.974731,534.501465 
	C1248.020386,535.414001 1241.212402,537.452026 1234.344727,539.010864 
	C1226.889526,540.703186 1219.441406,542.426880 1211.277832,543.971436 
	C1210.492798,544.300598 1209.707642,544.629761 1208.993530,544.975464 
	C1208.993530,544.975464 1209.004395,544.903442 1208.157593,544.975830 
	C1202.371582,546.505249 1196.553467,547.925171 1190.812622,549.608459 
	C1187.774292,550.499390 1184.870239,551.848511 1182.001343,553.001770 
	C1182.001343,553.001770 1182.013672,552.906250 1181.177246,552.976868 
	C1180.213257,553.054199 1179.187256,552.943848 1178.295166,553.238586 
	C1171.140991,555.602173 1163.962891,557.909546 1156.904053,560.535461 
	C1154.631714,561.380859 1152.694580,563.127441 1150.137939,564.763733 
	C1150.026978,564.912048 1149.916138,565.060364 1149.317139,565.371704 
	C1148.654541,565.510193 1147.991821,565.648743 1146.890503,565.984802 
	C1146.890503,565.984802 1146.593140,566.362915 1146.478882,566.596863 
	C1146.216187,566.731506 1145.982422,566.701294 1145.218140,566.767029 
	C1145.076660,566.916321 1144.935059,567.065613 1144.227783,567.403870 
	C1143.475342,567.610168 1142.723022,567.816406 1141.996826,568.021973 
	C1141.996826,568.021973 1142.003418,567.996765 1141.186523,568.125549 
	C1140.216431,568.160583 1139.117554,567.907654 1138.295776,568.274780 
	C1129.029663,572.415771 1119.641846,576.330505 1110.613892,580.946228 
	C1100.009399,586.367981 1089.626587,592.249207 1079.354980,598.284302 
	C1075.260132,600.690308 1071.720703,604.041260 1067.993896,606.984558 
	C1067.993896,606.984558 1067.974243,606.918091 1067.224731,606.963928 
	C1066.582764,607.041199 1065.772217,606.893066 1065.323730,607.228760 
	C1055.639160,614.480408 1045.911621,621.679993 1036.394287,629.146790 
	C1033.589844,631.346985 1031.401489,634.332458 1028.995850,636.988770 
	C1028.995850,636.988770 1028.965942,636.923401 1028.254395,636.955994 
	C1025.366455,639.245300 1022.316956,641.363464 1019.646057,643.882935 
	C1017.801575,645.622681 1016.480347,647.917053 1014.992432,649.981628 
	C1014.992432,649.981628 1014.982666,649.912781 1014.245361,649.951477 
	C1013.801270,650.627869 1013.357239,651.304260 1012.996399,651.985291 
	C1012.996399,651.985291 1012.998291,651.901855 1012.437256,652.032227 
	C1012.258850,652.355286 1012.080444,652.678345 1012.001160,653.001221 
	C1012.001160,653.001221 1012.001526,652.902100 1011.440247,653.030518 
z"/>
<path fill="#1A1A1A" opacity="1.000000" stroke="none" 
	d="
M879.743408,1352.960205 
	C870.554688,1349.942749 861.365906,1346.925415 851.611938,1343.515137 
	C845.184143,1341.407349 839.321472,1339.692383 833.458801,1337.977417 
	C833.458801,1337.977417 833.283386,1338.113892 833.140991,1337.695312 
	C823.982300,1335.186768 814.965942,1333.096680 805.949524,1331.006592 
	C805.504517,1331.018066 805.059448,1331.029419 804.272339,1330.644531 
	C800.293274,1329.291138 796.697327,1328.116943 793.011108,1327.421265 
	C784.518066,1325.818115 775.981079,1324.447388 767.461914,1322.982422 
	C767.461914,1322.982422 767.297058,1323.120605 767.127563,1322.687744 
	C761.723450,1321.295776 756.522461,1320.055176 751.248596,1319.424194 
	C722.178833,1315.946167 693.091248,1312.616821 663.673462,1309.107910 
	C662.858887,1308.980103 662.380554,1308.980713 661.902222,1308.981323 
	C661.537048,1309.011963 661.171875,1309.042603 660.157104,1308.858276 
	C647.003113,1308.083740 634.498779,1307.524048 621.560059,1306.879517 
	C614.118286,1306.626221 607.110901,1306.457764 599.698486,1306.130371 
	C573.254822,1306.304199 547.216125,1306.637085 521.177429,1306.969971 
	C518.064453,1307.319092 514.951477,1307.668091 510.995178,1307.987549 
	C506.995178,1308.009155 503.837952,1308.038452 500.681915,1308.116089 
	C491.677551,1308.337524 485.002716,1303.745972 481.895691,1295.302490 
	C481.470917,1294.148193 480.538269,1293.180908 479.557129,1292.080078 
	C479.163422,1292.189941 479.053314,1292.346802 478.943207,1292.503784 
	C479.322998,1283.243042 480.090302,1273.979004 480.014374,1264.722046 
	C479.710205,1227.649536 479.013336,1190.580322 478.758301,1153.507812 
	C478.685425,1142.910156 480.071014,1132.302246 479.998444,1121.704590 
	C479.742523,1084.314697 478.965118,1046.928101 478.765015,1009.538208 
	C478.686920,994.944214 479.780304,980.347290 479.997101,965.746643 
	C480.075104,960.492065 478.814453,955.226990 478.743469,949.958984 
	C478.565613,936.759705 478.718597,923.555969 479.465820,909.989136 
	C479.774567,908.903259 479.356415,908.182190 478.938263,907.461182 
	C479.304077,896.874756 479.877563,886.290161 479.966675,875.701355 
	C480.032043,867.930176 479.475250,860.153076 479.169647,852.379639 
	C479.039093,849.058594 478.631775,845.735229 478.709534,842.421326 
	C479.219482,820.686340 479.827667,798.953674 480.688049,776.380371 
	C480.999603,773.509521 481.026886,771.478516 481.054138,769.447510 
	C480.754944,768.880676 480.211426,768.322083 480.192200,767.745911 
	C479.672455,752.164551 479.008667,736.583618 478.832214,720.997375 
	C478.765198,715.077820 479.840179,709.145264 480.725311,702.386841 
	C481.051483,694.182190 481.046997,686.809204 481.042511,679.436279 
	C480.274811,671.405212 479.507111,663.374207 479.014160,655.158081 
	C479.482086,654.939209 479.675323,654.905334 480.310669,654.957092 
	C484.898315,642.299866 489.818939,638.777039 503.448090,638.785217 
	C510.772400,638.789612 518.096741,638.786682 525.421021,638.786865 
	C532.533569,638.787048 539.646118,638.786926 547.230347,638.786926 
	C547.230347,633.297058 547.212463,628.342163 547.233948,623.387390 
	C547.285950,611.405151 554.850281,603.848145 566.924622,603.809326 
	C580.740723,603.764954 594.557129,603.802063 608.373413,603.803589 
	C610.978027,603.803894 613.582703,603.803589 616.682007,603.803589 
	C616.682007,601.390381 616.681885,599.596558 616.682007,597.802734 
	C616.683167,583.320557 616.681458,568.838379 616.686279,554.356201 
	C616.691345,539.028259 624.072937,532.016785 639.265076,532.912354 
	C640.926208,533.010254 642.590332,533.107117 644.242615,533.296204 
	C675.396118,536.861389 705.957520,543.240417 735.907043,552.550720 
	C737.220642,552.959045 738.693848,552.854065 740.092651,552.988281 
	C740.092651,552.988281 739.999023,552.999817 739.893799,553.331909 
	C750.521118,557.454651 761.253662,561.245300 772.255981,565.253052 
	C799.947510,576.460999 826.185547,589.731934 850.855408,606.041870 
	C851.742737,606.628540 852.991821,606.668152 854.072266,606.962708 
	C854.072266,606.962708 854.006348,606.984558 853.736572,607.236938 
	C856.007874,608.994263 858.548950,610.499207 861.090027,612.004150 
	C861.090027,612.004150 860.990479,612.005981 860.857239,612.297852 
	C865.844910,616.050720 870.965820,619.511658 876.086731,622.972595 
	C876.086731,622.972595 876.018127,622.987610 875.749939,623.236877 
	C880.723450,627.923157 885.950439,632.377869 891.236450,636.761292 
	C891.631042,637.088440 892.448975,636.905151 893.070068,636.959106 
	C893.070068,636.959106 893.005188,636.988953 892.711914,637.216187 
	C898.141968,642.948181 903.856079,648.462708 909.618591,653.926208 
	C909.880066,654.174011 910.579285,653.960205 911.074585,653.961365 
	C911.074585,653.961365 911.006165,653.988159 910.688477,654.194458 
	C910.623230,654.828674 910.800964,655.330139 911.138977,655.674011 
	C927.597107,672.417480 942.070862,690.731567 954.683228,710.529175 
	C954.888000,710.850708 955.608765,710.843506 956.088684,710.989746 
	C956.088684,710.989746 956.012573,710.986694 955.743774,711.250671 
	C956.682312,713.017944 957.889648,714.521240 959.096985,716.024536 
	C959.096985,716.024536 958.992188,716.011780 958.796753,716.292969 
	C959.316956,717.733887 960.032654,718.893616 961.360474,721.045227 
	C962.130310,718.627747 962.563721,717.266663 962.997070,715.905579 
	C962.997070,715.905579 963.007263,716.008484 963.326416,716.115234 
	C964.424194,714.451477 965.202759,712.680969 965.981323,710.910400 
	C965.981323,710.910400 965.987610,710.986023 966.260925,711.219849 
	C969.687622,706.272949 972.841003,701.092224 975.994324,695.911438 
	C975.994324,695.911438 975.997070,696.001221 976.284912,696.169617 
	C987.858643,682.950317 999.153809,669.570312 1010.396729,656.146545 
	C1010.838684,655.618774 1010.782532,654.673767 1010.958496,653.923157 
	C1010.958496,653.923157 1010.973755,653.993469 1011.354248,654.190674 
	C1011.823669,653.892639 1011.912537,653.397339 1012.001465,652.902100 
	C1012.001526,652.902100 1012.001160,653.001221 1012.368652,653.192993 
	C1012.823547,652.890442 1012.910889,652.396179 1012.998291,651.901855 
	C1012.998291,651.901855 1012.996399,651.985291 1013.313843,652.259094 
	C1014.081787,651.659546 1014.532227,650.786194 1014.982666,649.912781 
	C1014.982666,649.912781 1014.992432,649.981628 1015.215576,650.289124 
	C1018.232788,648.072144 1021.120483,645.641907 1023.789062,642.991089 
	C1025.668823,641.123718 1027.250854,638.956604 1028.965942,636.923340 
	C1028.965942,636.923401 1028.995850,636.988770 1029.199463,637.313110 
	C1042.174438,627.874207 1054.949829,618.115967 1067.692383,608.315247 
	C1067.976440,608.096680 1067.888550,607.394592 1067.974121,606.918091 
	C1067.974243,606.918091 1067.993896,606.984558 1068.210938,607.308960 
	C1083.095703,599.147339 1097.617920,590.395081 1112.483643,582.271057 
	C1122.062866,577.035950 1132.145996,572.722961 1142.003418,567.996765 
	C1142.003418,567.996765 1141.996826,568.021973 1142.091187,567.684875 
	C1143.054810,567.303467 1143.924194,567.259216 1144.793457,567.214966 
	C1144.935059,567.065613 1145.076660,566.916321 1145.567139,566.543274 
	C1145.916260,566.319519 1146.269531,566.239197 1146.269531,566.239197 
	C1146.269531,566.239197 1146.593140,566.362915 1146.593140,566.362915 
	C1146.593140,566.362915 1146.890503,565.984802 1147.281372,565.658569 
	C1148.383301,565.291138 1149.094238,565.249878 1149.805298,565.208679 
	C1149.916138,565.060364 1150.026978,564.912048 1150.690552,564.524292 
	C1161.504395,560.776489 1171.766113,557.270020 1182.015747,553.728149 
	C1182.099731,553.699097 1182.018066,553.190796 1182.013672,552.906250 
	C1182.013672,552.906250 1182.001343,553.001770 1182.309448,553.251587 
	C1191.025146,551.097473 1199.437622,548.709595 1207.828125,546.248108 
	C1208.310303,546.106628 1208.616333,545.365417 1209.004395,544.903442 
	C1209.004395,544.903442 1208.993530,544.975464 1209.208252,545.342834 
	C1210.283081,545.482910 1211.143066,545.255615 1212.419312,545.050415 
	C1236.431885,541.008667 1259.948120,536.361084 1283.655273,533.103516 
	C1297.497925,531.201355 1305.252319,539.387207 1305.263550,553.321899 
	C1305.275513,568.310608 1305.259888,583.299255 1305.281982,598.287964 
	C1305.284546,600.056030 1305.448730,601.823914 1305.537964,603.590515 
	C1312.404663,603.590515 1318.712524,603.590515 1325.480347,603.677734 
	C1336.760986,603.577576 1347.581543,603.390198 1358.432373,603.198242 
	C1358.462524,603.193726 1358.417358,603.242004 1358.710083,603.556152 
	C1369.958130,606.673218 1374.810303,612.934448 1374.798218,624.243591 
	C1374.793091,628.981628 1374.797363,633.719604 1374.797363,638.773743 
	C1388.321533,638.773743 1401.098633,638.803040 1413.875488,638.762268 
	C1421.011475,638.739502 1428.248535,638.064514 1434.517944,642.644958 
	C1434.527344,642.651855 1434.877075,642.193054 1435.067871,641.951782 
	C1435.067871,641.951843 1435.003174,641.992676 1434.686646,642.209106 
	C1439.568970,647.757019 1441.064331,654.112061 1441.059570,661.526489 
	C1440.926514,867.543579 1440.951660,1073.560791 1440.956665,1279.577881 
	C1440.956909,1287.532104 1441.948730,1295.674316 1436.371948,1302.518311 
	C1436.370850,1302.519775 1436.812134,1302.881836 1437.046753,1303.075439 
	C1437.046753,1303.075439 1437.026001,1303.007446 1436.639404,1302.756592 
	C1436.169312,1303.036865 1436.085815,1303.568115 1436.002441,1304.099365 
	C1436.002319,1304.099365 1436.001343,1304.028564 1435.846558,1303.690674 
	C1434.454224,1304.183960 1433.216797,1305.015137 1431.593018,1305.899414 
	C1428.963013,1306.977783 1426.719360,1308.003052 1424.475708,1309.028320 
	C1424.475708,1309.028320 1424.182983,1309.179199 1424.182983,1309.179199 
	C1424.182983,1309.179199 1423.853882,1309.169556 1423.178467,1308.797607 
	C1422.145752,1308.614990 1421.788452,1308.804443 1421.431152,1308.993896 
	C1421.431152,1308.993896 1421.278931,1309.126221 1421.119385,1308.679688 
	C1409.997437,1307.644897 1399.035034,1307.056519 1387.622803,1306.315918 
	C1369.879761,1305.999390 1352.586670,1305.788452 1335.293091,1305.705078 
	C1331.162231,1305.685181 1327.029297,1306.090820 1322.440918,1306.243286 
	C1314.658081,1306.445923 1307.331543,1306.706055 1299.639282,1306.819336 
	C1287.932251,1307.413574 1276.591187,1308.154785 1265.250000,1308.895996 
	C1265.250000,1308.895996 1264.774780,1309.017700 1264.058960,1308.859375 
	C1256.306641,1309.240845 1249.263428,1309.711426 1242.239014,1310.378662 
	C1240.834839,1310.512085 1239.501831,1311.395142 1238.135986,1311.932495 
	C1233.048218,1312.288940 1227.960327,1312.645386 1222.055786,1312.972168 
	C1216.771606,1313.303955 1212.282227,1313.492310 1207.839966,1314.053223 
	C1154.738525,1320.758545 1102.445435,1331.111328 1051.823120,1348.910034 
	C1050.018188,1349.544556 1048.382080,1350.659058 1046.667236,1351.549927 
	C1045.427246,1352.040405 1044.187378,1352.530762 1042.143921,1352.890869 
	C1030.065186,1357.469849 1018.789856,1362.179199 1007.514526,1366.888428 
	C1001.281250,1370.251831 995.048096,1373.615112 988.084839,1376.915771 
	C985.482971,1377.833374 983.472473,1378.619873 981.771118,1379.838013 
	C979.073914,1381.769165 976.583313,1383.988892 974.005249,1386.086426 
	C974.005249,1386.086426 974.010559,1386.009033 973.749146,1385.770264 
	C972.971130,1386.046021 972.454529,1386.560669 971.937866,1387.075195 
	C971.937866,1387.075195 971.959290,1386.954590 971.614929,1386.949463 
	C967.458252,1387.693115 963.612793,1389.166138 959.842773,1388.993164 
	C955.827087,1388.808960 951.882812,1387.067383 947.907288,1386.005615 
	C947.907288,1386.005737 947.991211,1386.002930 948.191162,1385.722900 
	C944.103455,1382.700562 939.988159,1379.625610 935.487183,1377.295410 
	C928.945862,1373.908813 922.126343,1371.059204 915.425476,1367.980713 
	C915.425476,1367.980713 915.347656,1368.131836 915.373657,1367.728271 
	C914.078430,1366.649292 912.803040,1365.857300 911.428589,1365.317261 
	C900.877747,1361.170532 890.307617,1357.072876 879.743408,1352.960205 
M981.108032,1106.500000 
	C981.108032,1168.037476 981.108032,1229.574951 981.108032,1292.395996 
	C982.973389,1290.055786 984.009460,1288.819336 984.977356,1287.531738 
	C1003.684998,1262.645020 1024.988403,1240.253296 1049.305176,1220.780640 
	C1111.839966,1170.703491 1183.814575,1144.073975 1262.840820,1135.188599 
	C1267.392944,1134.676880 1268.444336,1133.274780 1268.441772,1128.909424 
	C1268.333984,945.125793 1268.349121,761.342102 1268.348999,577.558472 
	C1268.348999,575.782593 1268.348999,574.006714 1268.348999,572.229675 
	C1267.010620,572.229675 1266.334717,572.138306 1265.690308,572.242676 
	C1203.164185,582.372498 1144.310791,602.455505 1091.009766,637.280090 
	C1043.654053,668.220276 1007.078308,708.833740 982.354980,759.870667 
	C981.461670,761.714783 981.147400,764.007751 981.146484,766.091797 
	C981.094055,879.227844 981.104248,992.363953 981.108032,1106.500000 
M653.798706,572.950439 
	C653.749634,574.280823 653.657593,575.611145 653.657532,576.941528 
	C653.650513,761.080811 653.649658,945.220093 653.658569,1129.359375 
	C653.658630,1130.974365 653.794250,1132.589355 653.871887,1134.322266 
	C771.132080,1147.407227 868.700256,1195.851685 940.659668,1292.059082 
	C940.805115,1290.512085 940.890015,1290.030884 940.890076,1289.549683 
	C940.900513,1114.742432 940.908691,939.935120 940.860840,765.127808 
	C940.860352,763.375671 940.440125,761.467773 939.676208,759.894531 
	C919.937683,719.244812 892.533752,684.661499 857.255554,656.398865 
	C815.562927,622.997437 768.336487,600.328857 717.153809,585.998779 
	C696.541992,580.227966 675.290894,576.740601 653.798706,572.950439 
M1158.263916,1234.634399 
	C1216.637451,1216.292969 1276.504639,1205.938232 1337.510620,1201.674805 
	C1337.510620,1014.560059 1337.510620,827.992676 1337.510620,641.145020 
	C1326.817383,641.145020 1316.405640,641.145020 1305.408936,641.145020 
	C1305.408936,643.441162 1305.408936,645.564575 1305.408936,647.687988 
	C1305.408081,814.832031 1305.408447,981.976074 1305.403809,1149.120117 
	C1305.403442,1162.338745 1298.848267,1169.247803 1285.973877,1170.194336 
	C1260.688232,1172.053223 1235.690186,1175.845337 1211.059326,1181.933350 
	C1142.119873,1198.973389 1082.937744,1232.609619 1035.038696,1285.429443 
	C1034.170410,1286.386841 1033.456665,1287.484497 1032.670776,1288.516846 
	C1072.635132,1266.228516 1114.124390,1248.374878 1158.263916,1234.634399 
M653.743652,1171.865112 
	C648.276550,1171.306274 642.819092,1170.617432 637.340576,1170.213745 
	C622.439148,1169.116089 616.594116,1162.904541 616.593994,1147.942627 
	C616.592346,981.141785 616.591858,814.341003 616.591064,647.540161 
	C616.591064,645.432373 616.591064,643.324524 616.591064,641.202820 
	C605.496277,641.202820 595.086792,641.202820 584.593628,641.202820 
	C584.593628,828.230652 584.593628,1014.920105 584.593628,1201.596558 
	C692.336975,1209.669434 794.758362,1234.983398 889.115662,1288.832275 
	C888.820984,1287.761475 888.388184,1286.960083 887.796997,1286.300781 
	C865.850647,1261.822632 840.843323,1241.017212 812.797668,1223.864502 
	C764.162903,1194.119507 710.930359,1178.381836 653.743652,1171.865112 
M1345.070923,1238.655884 
	C1263.474365,1243.377686 1184.701294,1260.370972 1109.439941,1292.770020 
	C1206.489380,1271.768921 1304.687988,1265.574219 1403.748291,1269.659424 
	C1403.748291,1071.548218 1403.748291,873.984131 1403.748291,676.171143 
	C1394.080566,676.171143 1384.676514,676.171143 1374.838745,676.171143 
	C1374.838745,677.975525 1374.838745,679.595581 1374.838745,681.215637 
	C1374.838745,836.029114 1374.838867,990.842529 1374.838257,1145.656006 
	C1374.838135,1169.819580 1374.851929,1193.983032 1374.824097,1218.146606 
	C1374.809937,1230.373291 1367.542480,1237.845215 1355.482178,1238.179199 
	C1352.321045,1238.266602 1349.162598,1238.451294 1345.070923,1238.655884 
M517.993591,910.500000 
	C517.993591,1030.210205 517.993591,1149.920288 517.993591,1269.667847 
	C616.757324,1265.666016 713.886902,1271.630127 810.044312,1292.192505 
	C808.773865,1290.864014 807.353699,1289.933716 805.800720,1289.368286 
	C788.133484,1282.936157 770.667480,1275.842651 752.723572,1270.298584 
	C691.807007,1251.477539 629.468933,1240.516968 565.687927,1238.179321 
	C556.125488,1237.828735 548.580994,1231.434570 547.321472,1222.304199 
	C547.005188,1220.011475 547.166382,1217.648071 547.166321,1215.317139 
	C547.161743,1037.518066 547.163025,859.719055 547.163818,681.919983 
	C547.163818,679.996094 547.163757,678.072266 547.163757,676.273315 
	C537.112732,676.273315 527.709961,676.273315 517.993591,676.273315 
	C517.993591,754.249329 517.993591,831.874695 517.993591,910.500000 
M890.360168,1289.409180 
	C890.360168,1289.409180 890.241089,1289.529175 890.241089,1289.529175 
	C890.241089,1289.529175 890.456848,1289.554077 890.360168,1289.409180 
M1031.493896,1289.469360 
	C1031.493896,1289.469360 1031.738770,1289.599121 1031.738770,1289.599121 
	C1031.738770,1289.599121 1031.699951,1289.365723 1031.493896,1289.469360 
z"/>
<path fill="#DCDDDD" opacity="1.000000" stroke="none" 
	d="
M739.979858,552.619080 
	C738.693848,552.854065 737.220642,552.959045 735.907043,552.550720 
	C705.957520,543.240417 675.396118,536.861389 644.242615,533.296204 
	C642.590332,533.107117 640.926208,533.010254 639.265076,532.912354 
	C624.072937,532.016785 616.691345,539.028259 616.686279,554.356201 
	C616.681458,568.838379 616.683167,583.320557 616.682007,597.802734 
	C616.681885,599.596558 616.682007,601.390381 616.682007,603.803589 
	C613.582703,603.803589 610.978027,603.803894 608.373413,603.803589 
	C594.557129,603.802063 580.740723,603.764954 566.924622,603.809326 
	C554.850281,603.848145 547.285950,611.405151 547.233948,623.387390 
	C547.212463,628.342163 547.230347,633.297058 547.230347,638.786926 
	C539.646118,638.786926 532.533569,638.787048 525.421021,638.786865 
	C518.096741,638.786682 510.772400,638.789612 503.448090,638.785217 
	C489.818939,638.777039 484.898315,642.299866 480.416809,654.452637 
	C480.039032,653.529236 479.997162,653.195984 479.955292,652.862732 
	C482.209839,641.476685 491.447906,636.625488 501.251404,636.857239 
	C515.565491,637.195618 529.893494,636.944214 544.950195,636.944214 
	C544.950195,633.138672 545.093994,629.387756 544.925171,625.650940 
	C544.203308,609.672180 555.112488,601.538818 568.762207,601.885498 
	C582.564209,602.236206 596.383667,601.849548 610.192078,602.035583 
	C613.943848,602.086182 615.055115,600.856567 615.015320,597.159546 
	C614.844971,581.338562 615.489746,565.488525 614.732910,549.702026 
	C614.294373,540.554932 625.655518,530.454651 633.916077,530.886780 
	C641.874634,531.303162 649.704956,531.189392 657.537781,533.810059 
	C663.107361,535.673523 669.481384,534.973755 675.389771,536.019836 
	C685.028442,537.726379 694.643860,539.662781 704.151978,541.982483 
	C715.284912,544.698669 726.296021,547.915894 737.347168,550.962219 
	C738.237732,551.207703 739.029419,551.812256 739.979858,552.619080 
z"/>
<path fill="#DFE1E1" opacity="1.000000" stroke="none" 
	d="
M1437.388916,1302.971313 
	C1436.812134,1302.881836 1436.370850,1302.519775 1436.371948,1302.518311 
	C1441.948730,1295.674316 1440.956909,1287.532104 1440.956665,1279.577881 
	C1440.951660,1073.560791 1440.926514,867.543579 1441.059570,661.526489 
	C1441.064331,654.112061 1439.568970,647.757019 1434.706787,642.176453 
	C1440.555420,643.572876 1441.370728,648.278442 1441.963989,652.935669 
	C1442.297974,655.557678 1442.013062,658.257935 1442.013062,660.922974 
	C1442.014771,871.460266 1442.012695,1081.997559 1442.051880,1292.534790 
	C1442.052612,1296.679688 1441.089233,1300.223511 1437.388916,1302.971313 
z"/>
<path fill="#D2D4D4" opacity="1.000000" stroke="none" 
	d="
M1325.020386,603.590515 
	C1318.712524,603.590515 1312.404663,603.590515 1305.537964,603.590515 
	C1305.448730,601.823914 1305.284546,600.056030 1305.281982,598.287964 
	C1305.259888,583.299255 1305.275513,568.310608 1305.263550,553.321899 
	C1305.252319,539.387207 1297.497925,531.201355 1283.655273,533.103516 
	C1259.948120,536.361084 1236.431885,541.008667 1212.415771,544.827637 
	C1211.995850,544.582642 1211.990234,544.136963 1211.990234,544.136963 
	C1219.441406,542.426880 1226.889526,540.703186 1234.344727,539.010864 
	C1241.212402,537.452026 1248.020386,535.414001 1254.974731,534.501465 
	C1266.878174,532.939392 1278.890381,531.089172 1290.827881,531.271423 
	C1299.808716,531.408569 1306.684082,538.694214 1306.951416,548.538696 
	C1307.398682,565.007629 1307.099976,581.497437 1307.060669,597.978333 
	C1307.051025,602.025330 1307.481079,604.236572 1312.717041,602.293701 
	C1316.088501,601.042725 1320.273193,601.983459 1324.550049,602.276489 
	C1325.041870,602.937195 1325.046509,603.263672 1325.020386,603.590515 
z"/>
<path fill="#D2D4D4" opacity="1.000000" stroke="none" 
	d="
M1047.020996,1351.597534 
	C1048.382080,1350.659058 1050.018188,1349.544556 1051.823120,1348.910034 
	C1102.445435,1331.111328 1154.738525,1320.758545 1207.839966,1314.053223 
	C1212.282227,1313.492310 1216.771606,1313.303955 1221.603516,1312.975098 
	C1217.246338,1314.033203 1212.569946,1315.547119 1207.794067,1315.990601 
	C1194.438110,1317.231201 1181.217896,1319.046997 1168.095581,1321.946899 
	C1156.792847,1324.444702 1145.231689,1325.758057 1133.898315,1328.136597 
	C1120.628662,1330.921631 1107.414673,1334.037598 1094.301880,1337.486084 
	C1082.768921,1340.518921 1071.401611,1344.185181 1059.975830,1347.620728 
	C1055.753784,1348.890137 1051.573853,1350.299561 1047.020996,1351.597534 
z"/>
<path fill="#DFE1E1" opacity="1.000000" stroke="none" 
	d="
M1435.052490,641.567017 
	C1434.877075,642.193054 1434.527344,642.651855 1434.517944,642.644958 
	C1428.248535,638.064514 1421.011475,638.739502 1413.875488,638.762268 
	C1401.098633,638.803040 1388.321533,638.773743 1374.797363,638.773743 
	C1374.797363,633.719604 1374.793091,628.981628 1374.798218,624.243591 
	C1374.810303,612.934448 1369.958130,606.673218 1359.398926,603.473022 
	C1360.254272,603.023987 1360.713623,602.972168 1361.172974,602.920410 
	C1368.752686,603.414001 1374.911499,610.877197 1375.816528,617.740356 
	C1376.627319,623.888855 1377.021606,630.092285 1377.662231,636.940125 
	C1381.274048,636.940125 1385.357056,636.939209 1389.440063,636.940247 
	C1400.906860,636.943237 1412.389893,636.603516 1423.831299,637.144714 
	C1427.621704,637.324036 1431.304810,639.771729 1435.052490,641.567017 
z"/>
<path fill="#DCDDDD" opacity="1.000000" stroke="none" 
	d="
M854.060364,606.586670 
	C852.991821,606.668152 851.742737,606.628540 850.855408,606.041870 
	C826.185547,589.731934 799.947510,576.460999 772.276245,564.944519 
	C772.039368,564.213318 772.052185,564.007629 772.064941,563.801941 
	C778.610901,566.270264 785.312561,568.396912 791.664368,571.291260 
	C800.057373,575.115967 808.271057,579.367310 816.386414,583.759155 
	C824.427551,588.110901 832.289001,592.800720 840.155334,597.466919 
	C844.859802,600.257629 849.422241,603.287964 854.060364,606.586670 
z"/>
<path fill="#D2D4D4" opacity="1.000000" stroke="none" 
	d="
M664.009766,1309.236450 
	C693.091248,1312.616821 722.178833,1315.946167 751.248596,1319.424194 
	C756.522461,1320.055176 761.723450,1321.295776 767.028442,1322.645874 
	C757.866089,1321.654785 748.632874,1320.275757 739.400757,1318.889160 
	C735.294189,1318.272461 731.205261,1317.504761 727.081848,1317.041138 
	C714.723450,1315.651123 702.359619,1314.299072 689.982910,1313.084717 
	C681.083984,1312.211426 672.161072,1311.582520 663.287964,1310.362427 
	C663.628174,1309.743652 663.855713,1309.529053 664.009766,1309.236450 
z"/>
<path fill="#DCDDDD" opacity="1.000000" stroke="none" 
	d="
M1141.594971,568.061157 
	C1132.145996,572.722961 1122.062866,577.035950 1112.483643,582.271057 
	C1097.617920,590.395081 1083.095703,599.147339 1068.178101,607.297729 
	C1071.720703,604.041260 1075.260132,600.690308 1079.354980,598.284302 
	C1089.626587,592.249207 1100.009399,586.367981 1110.613892,580.946228 
	C1119.641846,576.330505 1129.029663,572.415771 1138.295776,568.274780 
	C1139.117554,567.907654 1140.216431,568.160583 1141.594971,568.061157 
z"/>
<path fill="#DCDDDD" opacity="1.000000" stroke="none" 
	d="
M956.053467,710.618896 
	C955.608765,710.843506 954.888000,710.850708 954.683228,710.529175 
	C942.070862,690.731567 927.597107,672.417480 911.138977,655.674011 
	C910.800964,655.330139 910.623230,654.828674 910.706299,654.162354 
	C928.758423,670.523193 944.016357,689.085571 956.053467,710.618896 
z"/>
<path fill="#B6B6B6" opacity="1.000000" stroke="none" 
	d="
M521.534912,1307.129639 
	C547.216125,1306.637085 573.254822,1306.304199 599.751831,1306.342041 
	C600.210205,1306.712769 599.957886,1307.068970 599.957886,1307.068970 
	C582.335266,1307.039551 564.712524,1306.973999 547.089966,1306.996826 
	C538.690674,1307.007690 530.291626,1307.186646 521.534912,1307.129639 
z"/>
<path fill="#B6B6B6" opacity="1.000000" stroke="none" 
	d="
M1322.897339,1306.300781 
	C1327.029297,1306.090820 1331.162231,1305.685181 1335.293091,1305.705078 
	C1352.586670,1305.788452 1369.879761,1305.999390 1387.700195,1306.497681 
	C1388.276367,1307.107544 1388.218140,1307.358521 1388.052612,1307.584473 
	C1378.994019,1307.412842 1369.935913,1307.162964 1360.876587,1307.088623 
	C1348.575195,1306.987671 1336.272583,1307.021118 1323.376831,1306.856689 
	C1322.783081,1306.716431 1322.897339,1306.300781 1322.897339,1306.300781 
z"/>
<path fill="#DCDDDD" opacity="1.000000" stroke="none" 
	d="
M1010.626953,654.009338 
	C1010.782532,654.673767 1010.838684,655.618774 1010.396729,656.146545 
	C999.153809,669.570312 987.858643,682.950317 976.239990,696.170654 
	C978.763367,691.643188 981.275940,687.003601 984.548645,682.982666 
	C990.901306,675.177673 997.649536,667.692566 1004.304199,660.136780 
	C1006.175415,658.012207 1008.291504,656.103333 1010.626953,654.009338 
z"/>
<path fill="#DCDDDD" opacity="1.000000" stroke="none" 
	d="
M1067.599365,606.941040 
	C1067.888550,607.394592 1067.976440,608.096680 1067.692383,608.315247 
	C1054.949829,618.115967 1042.174438,627.874207 1029.166870,637.297729 
	C1031.401489,634.332458 1033.589844,631.346985 1036.394287,629.146790 
	C1045.911621,621.679993 1055.639160,614.480408 1065.323730,607.228760 
	C1065.772217,606.893066 1066.582764,607.041199 1067.599365,606.941040 
z"/>
<path fill="#D2D4D4" opacity="1.000000" stroke="none" 
	d="
M879.837769,1353.356567 
	C890.307617,1357.072876 900.877747,1361.170532 911.428589,1365.317261 
	C912.803040,1365.857300 914.078430,1366.649292 915.295044,1367.696045 
	C906.391418,1364.530273 897.588318,1361.003418 888.795654,1357.450806 
	C885.827637,1356.251709 882.885925,1354.987427 879.837769,1353.356567 
z"/>
<path fill="#D2D4D4" opacity="1.000000" stroke="none" 
	d="
M1007.723694,1367.116699 
	C1018.789856,1362.179199 1030.065186,1357.469849 1041.735229,1352.868652 
	C1041.977905,1353.579956 1041.992432,1354.585571 1041.649414,1354.727539 
	C1031.663086,1358.860718 1021.652832,1362.937500 1011.607849,1366.926147 
	C1010.501831,1367.365356 1009.163452,1367.219482 1007.723694,1367.116699 
z"/>
<path fill="#DCDDDD" opacity="1.000000" stroke="none" 
	d="
M479.840759,1292.126953 
	C480.538269,1293.180908 481.470917,1294.148193 481.895691,1295.302490 
	C485.002716,1303.745972 491.677551,1308.337524 500.681915,1308.116089 
	C503.837952,1308.038452 506.995178,1308.009155 510.547424,1307.986328 
	C498.580566,1311.996582 483.405701,1309.217651 480.165680,1293.971558 
	C479.997070,1292.788208 479.918915,1292.457520 479.840759,1292.126953 
z"/>
<path fill="#D2D4D4" opacity="1.000000" stroke="none" 
	d="
M1181.595459,552.941528 
	C1182.018066,553.190796 1182.099731,553.699097 1182.015747,553.728149 
	C1171.766113,557.270020 1161.504395,560.776489 1150.923584,564.373230 
	C1152.694580,563.127441 1154.631714,561.380859 1156.904053,560.535461 
	C1163.962891,557.909546 1171.140991,555.602173 1178.295166,553.238586 
	C1179.187256,552.943848 1180.213257,553.054199 1181.595459,552.941528 
z"/>
<path fill="#D2D4D4" opacity="1.000000" stroke="none" 
	d="
M771.901978,563.464478 
	C772.052185,564.007629 772.039368,564.213318 772.006348,564.727539 
	C761.253662,561.245300 750.521118,557.454651 739.887695,553.285156 
	C749.546570,555.958069 759.107178,559.007507 768.665222,562.064941 
	C769.697449,562.395142 770.714844,562.771912 771.901978,563.464478 
z"/>
<path fill="#D2D4D4" opacity="1.000000" stroke="none" 
	d="
M915.667358,1368.306519 
	C922.126343,1371.059204 928.945862,1373.908813 935.487183,1377.295410 
	C939.988159,1379.625610 944.103455,1382.700562 948.191772,1385.764893 
	C941.630249,1382.567505 935.283203,1379.020508 928.900940,1375.538086 
	C924.595947,1373.189209 920.241455,1370.931152 915.667358,1368.306519 
z"/>
<path fill="#DFE1E1" opacity="1.000000" stroke="none" 
	d="
M1325.480347,603.677734 
	C1325.046509,603.263672 1325.041870,602.937195 1325.007690,602.366028 
	C1336.026855,602.074280 1347.045044,602.027588 1358.421753,602.337708 
	C1358.654297,602.863953 1358.528320,603.033386 1358.402222,603.202820 
	C1347.581543,603.390198 1336.760986,603.577576 1325.480347,603.677734 
z"/>
<path fill="#DCDDDD" opacity="1.000000" stroke="none" 
	d="
M767.739746,1323.296143 
	C775.981079,1324.447388 784.518066,1325.818115 793.011108,1327.421265 
	C796.697327,1328.116943 800.293274,1329.291138 803.939819,1330.612671 
	C798.968689,1330.003174 793.979614,1329.069336 789.009094,1328.045288 
	C782.004700,1326.601929 775.014038,1325.091553 767.739746,1323.296143 
z"/>
<path fill="#B6B6B6" opacity="1.000000" stroke="none" 
	d="
M621.994385,1306.964355 
	C634.498779,1307.524048 647.003113,1308.083740 659.882690,1308.835205 
	C658.601746,1309.392578 656.784302,1310.394165 655.315186,1310.021729 
	C644.604797,1307.306763 633.729370,1307.994263 622.418091,1307.730835 
	C621.958496,1307.410034 621.994385,1306.964355 621.994385,1306.964355 
z"/>
<path fill="#D2D4D4" opacity="1.000000" stroke="none" 
	d="
M1388.470459,1307.637207 
	C1388.218140,1307.358521 1388.276367,1307.107544 1388.150146,1306.649902 
	C1399.035034,1307.056519 1409.997437,1307.644897 1421.028809,1308.635132 
	C1417.511597,1309.046875 1413.917725,1309.209717 1410.340332,1309.034424 
	C1403.184814,1308.684204 1396.038574,1308.148926 1388.470459,1307.637207 
z"/>
<path fill="#B6B6B6" opacity="1.000000" stroke="none" 
	d="
M1265.609131,1309.020752 
	C1276.591187,1308.154785 1287.932251,1307.413574 1299.658691,1307.041260 
	C1300.044067,1307.410034 1300.048706,1307.855591 1300.048706,1307.855469 
	C1297.587646,1307.904541 1295.119507,1307.851196 1292.666870,1308.021240 
	C1284.678345,1308.575073 1276.697266,1309.237671 1268.707886,1309.776001 
	C1267.812866,1309.836304 1266.882202,1309.368408 1265.609131,1309.020752 
z"/>
<path fill="#D2D4D4" opacity="1.000000" stroke="none" 
	d="
M806.122803,1331.364380 
	C814.965942,1333.096680 823.982300,1335.186768 833.038086,1337.653442 
	C827.318909,1336.842163 821.541138,1335.738403 815.809204,1334.433105 
	C812.598877,1333.702026 809.464539,1332.636963 806.122803,1331.364380 
z"/>
<path fill="#D2D4D4" opacity="1.000000" stroke="none" 
	d="
M1238.584961,1311.971558 
	C1239.501831,1311.395142 1240.834839,1310.512085 1242.239014,1310.378662 
	C1249.263428,1309.711426 1256.306641,1309.240845 1263.814941,1308.832520 
	C1262.913818,1309.669922 1261.577637,1310.893066 1260.161377,1310.994263 
	C1253.130615,1311.495605 1246.078491,1311.701050 1238.584961,1311.971558 
z"/>
<path fill="#DCDDDD" opacity="1.000000" stroke="none" 
	d="
M911.058044,653.605835 
	C910.579285,653.960205 909.880066,654.174011 909.618591,653.926208 
	C903.856079,648.462708 898.141968,642.948181 892.726562,637.183594 
	C895.781311,639.165283 898.636353,641.288452 901.248047,643.677612 
	C904.614441,646.757141 907.786011,650.049622 911.058044,653.605835 
z"/>
<path fill="#DFE1E1" opacity="1.000000" stroke="none" 
	d="
M1208.580933,544.939575 
	C1208.616333,545.365417 1208.310303,546.106628 1207.828125,546.248108 
	C1199.437622,548.709595 1191.025146,551.097473 1182.261597,553.246094 
	C1184.870239,551.848511 1187.774292,550.499390 1190.812622,549.608459 
	C1196.553467,547.925171 1202.371582,546.505249 1208.580933,544.939575 
z"/>
<path fill="#DCDDDD" opacity="1.000000" stroke="none" 
	d="
M893.061035,636.595947 
	C892.448975,636.905151 891.631042,637.088440 891.236450,636.761292 
	C885.950439,632.377869 880.723450,627.923157 875.753174,623.201904 
	C878.677673,624.588989 881.503662,626.043335 883.940979,627.985413 
	C887.138428,630.533264 890.029297,633.465698 893.061035,636.595947 
z"/>
<path fill="#D2D4D4" opacity="1.000000" stroke="none" 
	d="
M948.016052,1386.356934 
	C951.882812,1387.067383 955.827087,1388.808960 959.842773,1388.993164 
	C963.612793,1389.166138 967.458252,1387.693115 971.676025,1386.954224 
	C967.844971,1392.062988 961.988831,1391.415283 956.528809,1390.710815 
	C953.604004,1390.333496 950.918396,1388.102661 948.016052,1386.356934 
z"/>
<path fill="#DCDDDD" opacity="1.000000" stroke="none" 
	d="
M875.981323,622.630371 
	C870.965820,619.511658 865.844910,616.050720 860.855286,612.248047 
	C865.949646,615.367004 870.912781,618.827576 875.981323,622.630371 
z"/>
<path fill="#DCDDDD" opacity="1.000000" stroke="none" 
	d="
M1028.610107,636.939697 
	C1027.250854,638.956604 1025.668823,641.123718 1023.789062,642.991089 
	C1021.120483,645.641907 1018.232788,648.072144 1015.182007,650.280151 
	C1016.480347,647.917053 1017.801575,645.622681 1019.646057,643.882935 
	C1022.316956,641.363464 1025.366455,639.245300 1028.610107,636.939697 
z"/>
<path fill="#F3F5F4" opacity="1.000000" stroke="none" 
	d="
M1300.511230,1307.912598 
	C1300.048706,1307.855591 1300.044067,1307.410034 1300.024658,1307.188232 
	C1307.331543,1306.706055 1314.658081,1306.445923 1322.440918,1306.243286 
	C1322.897339,1306.300781 1322.783081,1306.716431 1322.911621,1306.889404 
	C1319.119873,1307.380981 1315.204346,1307.813477 1311.277710,1307.983643 
	C1307.849731,1308.132324 1304.408936,1307.985718 1300.511230,1307.912598 
z"/>
<path fill="#F3F5F4" opacity="1.000000" stroke="none" 
	d="
M621.560059,1306.879517 
	C621.994385,1306.964355 621.958496,1307.410034 621.955200,1307.633545 
	C614.751526,1307.857300 607.551086,1307.857300 600.154297,1307.463135 
	C599.957886,1307.068970 600.210205,1306.712769 600.156860,1306.501099 
	C607.110901,1306.457764 614.118286,1306.626221 621.560059,1306.879517 
z"/>
<path fill="#DCDDDD" opacity="1.000000" stroke="none" 
	d="
M975.616577,695.930908 
	C972.841003,701.092224 969.687622,706.272949 966.223022,711.221252 
	C969.020813,705.976013 972.129761,700.963257 975.616577,695.930908 
z"/>
<path fill="#D2D4D4" opacity="1.000000" stroke="none" 
	d="
M833.738403,1338.274658 
	C839.321472,1339.692383 845.184143,1341.407349 851.217773,1343.366455 
	C845.598511,1341.931030 839.808289,1340.251465 833.738403,1338.274658 
z"/>
<path fill="#D2D4D4" opacity="1.000000" stroke="none" 
	d="
M974.388855,1386.065430 
	C976.583313,1383.988892 979.073914,1381.769165 981.771118,1379.838013 
	C983.472473,1378.619873 985.482971,1377.833374 987.727173,1376.916992 
	C983.657288,1380.002197 979.214905,1383.023315 974.388855,1386.065430 
z"/>
<path fill="#DCDDDD" opacity="1.000000" stroke="none" 
	d="
M480.777405,679.215698 
	C481.046997,686.809204 481.051483,694.182190 481.049194,702.059143 
	C480.866272,702.711487 480.690125,702.859802 480.309509,702.375488 
	C480.058868,701.455139 480.012756,701.167480 479.966675,700.879883 
	C479.971558,694.601624 479.976440,688.323303 480.039978,681.150146 
	C480.047943,679.966797 479.997284,679.678223 479.946625,679.389709 
	C480.135223,679.258179 480.323792,679.126587 480.777405,679.215698 
z"/>
<path fill="#DCDDDD" opacity="1.000000" stroke="none" 
	d="
M861.065552,611.630371 
	C858.548950,610.499207 856.007874,608.994263 853.746216,607.203552 
	C856.364014,608.364075 858.702576,609.810364 861.065552,611.630371 
z"/>
<path fill="#D2D4D4" opacity="1.000000" stroke="none" 
	d="
M1424.727783,1309.303833 
	C1426.719360,1308.003052 1428.963013,1306.977783 1431.609619,1306.240601 
	C1432.032959,1306.755493 1432.053223,1306.982300 1432.073486,1307.208984 
	C1429.708984,1307.999146 1427.344482,1308.789307 1424.727783,1309.303833 
z"/>
<path fill="#DCDDDD" opacity="1.000000" stroke="none" 
	d="
M962.679077,715.999268 
	C962.563721,717.266663 962.130310,718.627747 961.360474,721.045227 
	C960.032654,718.893616 959.316956,717.733887 958.801758,716.240356 
	C960.121887,715.968750 961.241394,716.030823 962.679077,715.999268 
z"/>
<path fill="#FFFFFF" opacity="1.000000" stroke="none" 
	d="
M480.604492,769.093628 
	C481.026886,771.478516 480.999603,773.509521 481.013245,776.046509 
	C480.499695,776.664612 479.945251,776.776733 479.390808,776.888855 
	C479.645477,774.172485 479.900177,771.456116 480.604492,769.093628 
z"/>
<path fill="#DCDDDD" opacity="1.000000" stroke="none" 
	d="
M959.052734,715.657715 
	C957.889648,714.521240 956.682312,713.017944 955.747070,711.212708 
	C957.015625,712.370789 958.012024,713.830872 959.052734,715.657715 
z"/>
<path fill="#DCDDDD" opacity="1.000000" stroke="none" 
	d="
M965.643127,711.021118 
	C965.202759,712.680969 964.424194,714.451477 963.275146,716.121460 
	C963.704773,714.391174 964.504822,712.761536 965.643127,711.021118 
z"/>
<path fill="#DFE1E1" opacity="1.000000" stroke="none" 
	d="
M1432.409668,1307.139160 
	C1432.053223,1306.982300 1432.032959,1306.755493 1431.995972,1306.187500 
	C1433.216797,1305.015137 1434.454224,1304.183960 1435.880249,1303.701660 
	C1434.961060,1305.056641 1433.853394,1306.062988 1432.409668,1307.139160 
z"/>
<path fill="#DCDDDD" opacity="1.000000" stroke="none" 
	d="
M1014.614014,649.932129 
	C1014.532227,650.786194 1014.081787,651.659546 1013.272217,652.256775 
	C1013.357239,651.304260 1013.801270,650.627869 1014.614014,649.932129 
z"/>
<path fill="#DFE1E1" opacity="1.000000" stroke="none" 
	d="
M1211.634033,544.054199 
	C1211.990234,544.136963 1211.995850,544.582642 1211.999512,544.805481 
	C1211.143066,545.255615 1210.283081,545.482910 1209.172852,545.334595 
	C1209.707642,544.629761 1210.492798,544.300598 1211.634033,544.054199 
z"/>
<path fill="#DCDDDD" opacity="1.000000" stroke="none" 
	d="
M1149.561279,565.290161 
	C1149.094238,565.249878 1148.383301,565.291138 1147.500732,565.559814 
	C1147.991821,565.648743 1148.654541,565.510193 1149.561279,565.290161 
z"/>
<path fill="#DCDDDD" opacity="1.000000" stroke="none" 
	d="
M1144.510620,567.309448 
	C1143.924194,567.259216 1143.054810,567.303467 1142.078125,567.685242 
	C1142.723022,567.816406 1143.475342,567.610168 1144.510620,567.309448 
z"/>
<path fill="#B6B6B6" opacity="1.000000" stroke="none" 
	d="
M663.673462,1309.107910 
	C663.855713,1309.529053 663.628174,1309.743652 663.102112,1309.958496 
	C662.609314,1309.845093 662.341492,1309.653687 661.987915,1309.221680 
	C662.380554,1308.980713 662.858887,1308.980103 663.673462,1309.107910 
z"/>
<path fill="#D2D4D4" opacity="1.000000" stroke="none" 
	d="
M1358.432373,603.198242 
	C1358.528320,603.033386 1358.654297,602.863953 1358.886719,602.396057 
	C1359.635376,602.161987 1360.277710,602.226318 1361.046387,602.605530 
	C1360.713623,602.972168 1360.254272,603.023987 1359.106201,603.158875 
	C1358.417358,603.242004 1358.462524,603.193726 1358.432373,603.198242 
z"/>
<path fill="#DCDDDD" opacity="1.000000" stroke="none" 
	d="
M1146.536011,566.479858 
	C1146.593140,566.362915 1146.269531,566.239197 1146.269531,566.239197 
	C1146.269531,566.239197 1145.916260,566.319519 1145.846924,566.412842 
	C1145.982422,566.701294 1146.216187,566.731506 1146.536011,566.479858 
z"/>
<path fill="#D2D4D4" opacity="1.000000" stroke="none" 
	d="
M972.266968,1387.002808 
	C972.454529,1386.560669 972.971130,1386.046021 973.787781,1385.774170 
	C973.590515,1386.321411 973.093323,1386.625977 972.266968,1387.002808 
z"/>
<path fill="#DCDDDD" opacity="1.000000" stroke="none" 
	d="
M1012.717773,651.967041 
	C1012.910889,652.396179 1012.823547,652.890442 1012.319092,653.193115 
	C1012.080444,652.678345 1012.258850,652.355286 1012.717773,651.967041 
z"/>
<path fill="#FFFFFF" opacity="1.000000" stroke="none" 
	d="
M479.636414,653.011597 
	C479.997162,653.195984 480.039032,653.529236 479.974731,654.366943 
	C479.675323,654.905334 479.482086,654.939209 479.116364,654.734009 
	C479.068420,654.050171 479.192963,653.605347 479.636414,653.011597 
z"/>
<path fill="#D2D4D4" opacity="1.000000" stroke="none" 
	d="
M1421.682861,1309.260010 
	C1421.788452,1308.804443 1422.145752,1308.614990 1423.037720,1308.712158 
	C1423.026611,1309.174438 1422.480591,1309.350220 1421.682861,1309.260010 
z"/>
<path fill="#FFFFFF" opacity="1.000000" stroke="none" 
	d="
M478.964722,907.980469 
	C479.356415,908.182190 479.774567,908.903259 479.565460,909.581360 
	C478.955872,909.192261 478.973541,908.846008 478.964722,907.980469 
z"/>
<path fill="#DCDDDD" opacity="1.000000" stroke="none" 
	d="
M1011.720825,652.966309 
	C1011.912537,653.397339 1011.823669,653.892639 1011.318359,654.192871 
	C1011.081360,653.675354 1011.260803,653.352966 1011.720825,652.966309 
z"/>
<path fill="#FFFFFF" opacity="1.000000" stroke="none" 
	d="
M479.557129,1292.080078 
	C479.918915,1292.457520 479.997070,1292.788208 480.018890,1293.625244 
	C479.648376,1293.821655 479.334229,1293.511719 478.981628,1292.852783 
	C479.053314,1292.346802 479.163422,1292.189941 479.557129,1292.080078 
z"/>
<path fill="#FFFFFF" opacity="1.000000" stroke="none" 
	d="
M479.596008,679.408264 
	C479.997284,679.678223 480.047943,679.966797 480.031799,680.689697 
	C479.725098,680.558289 479.485229,679.992554 479.596008,679.408264 
z"/>
<path fill="#DFE1E1" opacity="1.000000" stroke="none" 
	d="
M1436.280518,1304.033691 
	C1436.085815,1303.568115 1436.169312,1303.036865 1436.674927,1302.758301 
	C1436.917603,1303.330078 1436.738037,1303.649048 1436.280518,1304.033691 
z"/>
<path fill="#FFFFFF" opacity="1.000000" stroke="none" 
	d="
M479.627686,701.037476 
	C480.012756,701.167480 480.058868,701.455139 480.025085,702.179504 
	C479.726379,702.142456 479.507568,701.668762 479.627686,701.037476 
z"/>
<path fill="#F3F5F4" opacity="1.000000" stroke="none" 
	d="
M981.108032,1106.000000 
	C981.104248,992.363953 981.094055,879.227844 981.146484,766.091797 
	C981.147400,764.007751 981.461670,761.714783 982.354980,759.870667 
	C1007.078308,708.833740 1043.654053,668.220276 1091.009766,637.280090 
	C1144.310791,602.455505 1203.164185,582.372498 1265.690308,572.242676 
	C1266.334717,572.138306 1267.010620,572.229675 1268.348999,572.229675 
	C1268.348999,574.006714 1268.348999,575.782593 1268.348999,577.558472 
	C1268.349121,761.342102 1268.333984,945.125793 1268.441772,1128.909424 
	C1268.444336,1133.274780 1267.392944,1134.676880 1262.840820,1135.188599 
	C1183.814575,1144.073975 1111.839966,1170.703491 1049.305176,1220.780640 
	C1024.988403,1240.253296 1003.684998,1262.645020 984.977356,1287.531738 
	C984.009460,1288.819336 982.973389,1290.055786 981.108032,1292.395996 
	C981.108032,1229.574951 981.108032,1168.037476 981.108032,1106.000000 
z"/>
<path fill="#F3F5F4" opacity="1.000000" stroke="none" 
	d="
M654.064697,572.582214 
	C675.290894,576.740601 696.541992,580.227966 717.153809,585.998779 
	C768.336487,600.328857 815.562927,622.997437 857.255554,656.398865 
	C892.533752,684.661499 919.937683,719.244812 939.676208,759.894531 
	C940.440125,761.467773 940.860352,763.375671 940.860840,765.127808 
	C940.908691,939.935120 940.900513,1114.742432 940.890076,1289.549683 
	C940.890015,1290.030884 940.805115,1290.512085 940.659668,1292.059082 
	C868.700256,1195.851685 771.132080,1147.407227 653.871887,1134.322266 
	C653.794250,1132.589355 653.658630,1130.974365 653.658569,1129.359375 
	C653.649658,945.220093 653.650513,761.080811 653.657532,576.941528 
	C653.657593,575.611145 653.749634,574.280823 654.064697,572.582214 
z"/>
<path fill="#EFF0F0" opacity="1.000000" stroke="none" 
	d="
M1157.882324,1234.751465 
	C1114.124390,1248.374878 1072.635132,1266.228516 1032.670776,1288.516846 
	C1033.456665,1287.484497 1034.170410,1286.386841 1035.038696,1285.429443 
	C1082.937744,1232.609619 1142.119873,1198.973389 1211.059326,1181.933350 
	C1235.690186,1175.845337 1260.688232,1172.053223 1285.973877,1170.194336 
	C1298.848267,1169.247803 1305.403442,1162.338745 1305.403809,1149.120117 
	C1305.408447,981.976074 1305.408081,814.832031 1305.408936,647.687988 
	C1305.408936,645.564575 1305.408936,643.441162 1305.408936,641.145020 
	C1316.405640,641.145020 1326.817383,641.145020 1337.510620,641.145020 
	C1337.510620,827.992676 1337.510620,1014.560059 1337.510620,1201.674805 
	C1276.504639,1205.938232 1216.637451,1216.292969 1157.882324,1234.751465 
z"/>
<path fill="#EFF0F0" opacity="1.000000" stroke="none" 
	d="
M654.192139,1171.912964 
	C710.930359,1178.381836 764.162903,1194.119507 812.797668,1223.864502 
	C840.843323,1241.017212 865.850647,1261.822632 887.796997,1286.300781 
	C888.388184,1286.960083 888.820984,1287.761475 889.115662,1288.832275 
	C794.758362,1234.983398 692.336975,1209.669434 584.593628,1201.596558 
	C584.593628,1014.920105 584.593628,828.230652 584.593628,641.202820 
	C595.086792,641.202820 605.496277,641.202820 616.591064,641.202820 
	C616.591064,643.324524 616.591064,645.432373 616.591064,647.540161 
	C616.591858,814.341003 616.592346,981.141785 616.593994,1147.942627 
	C616.594116,1162.904541 622.439148,1169.116089 637.340576,1170.213745 
	C642.819092,1170.617432 648.276550,1171.306274 654.192139,1171.912964 
z"/>
<path fill="#F1F3F2" opacity="1.000000" stroke="none" 
	d="
M1345.536865,1238.623535 
	C1349.162598,1238.451294 1352.321045,1238.266602 1355.482178,1238.179199 
	C1367.542480,1237.845215 1374.809937,1230.373291 1374.824097,1218.146606 
	C1374.851929,1193.983032 1374.838135,1169.819580 1374.838257,1145.656006 
	C1374.838867,990.842529 1374.838745,836.029114 1374.838745,681.215637 
	C1374.838745,679.595581 1374.838745,677.975525 1374.838745,676.171143 
	C1384.676514,676.171143 1394.080566,676.171143 1403.748291,676.171143 
	C1403.748291,873.984131 1403.748291,1071.548218 1403.748291,1269.659424 
	C1304.687988,1265.574219 1206.489380,1271.768921 1109.439941,1292.770020 
	C1184.701294,1260.370972 1263.474365,1243.377686 1345.536865,1238.623535 
z"/>
<path fill="#F1F3F2" opacity="1.000000" stroke="none" 
	d="
M517.993591,910.000000 
	C517.993591,831.874695 517.993591,754.249329 517.993591,676.273315 
	C527.709961,676.273315 537.112732,676.273315 547.163757,676.273315 
	C547.163757,678.072266 547.163818,679.996094 547.163818,681.919983 
	C547.163025,859.719055 547.161743,1037.518066 547.166321,1215.317139 
	C547.166382,1217.648071 547.005188,1220.011475 547.321472,1222.304199 
	C548.580994,1231.434570 556.125488,1237.828735 565.687927,1238.179321 
	C629.468933,1240.516968 691.807007,1251.477539 752.723572,1270.298584 
	C770.667480,1275.842651 788.133484,1282.936157 805.800720,1289.368286 
	C807.353699,1289.933716 808.773865,1290.864014 810.044312,1292.192505 
	C713.886902,1271.630127 616.757324,1265.666016 517.993591,1269.667847 
	C517.993591,1149.920288 517.993591,1030.210205 517.993591,910.000000 
z"/>
<path fill="#EFF0F0" opacity="1.000000" stroke="none" 
	d="
M890.408508,1289.481689 
	C890.456848,1289.554077 890.241089,1289.529175 890.241089,1289.529175 
	C890.241089,1289.529175 890.360168,1289.409180 890.408508,1289.481689 
z"/>
<path fill="#EFF0F0" opacity="1.000000" stroke="none" 
	d="
M1031.596924,1289.417480 
	C1031.699951,1289.365723 1031.738770,1289.599121 1031.738770,1289.599121 
	C1031.738770,1289.599121 1031.493896,1289.469360 1031.596924,1289.417480 
z"/>
</svg>